<?xml version="1.0" encoding="utf-8"?>
<svg xmlns="http://www.w3.org/2000/svg" x="0px" y="0px" width="300px" height="58.8px">
<radialGradient id="SVGID_1_" cx="56.4783" cy="11.2049" r="48.2861" gradientUnits="userSpaceOnUse">
	<stop  offset="0" style="stop-color:#FFFFFF"/>
	<stop  offset="5.970375e-02" style="stop-color:#EBF3FC"/>
	<stop  offset="0.1825" style="stop-color:#B6D6F4"/>
	<stop  offset="0.3582" style="stop-color:#61A6E8"/>
	<stop  offset="0.544" style="stop-color:#006FDA"/>
	<stop  offset="1" style="stop-color:#002244"/>
</radialGradient>
<path fill="url(#SVGID_1_)" d="M36.4,48c3.9,0,7.5-0.6,10.7-1.7c0.8-0.3,1.6-0.6,2.3-0.9c-0.9,2.2-2.2,4-3.9,5.4
	c-3.4,2.5-7.4,4.2-11.8,4.9C34.9,53.8,35.8,51.2,36.4,48 M18.3,53.4c-0.1-0.1-0.2-0.1-0.3-0.2c-1.5-0.7-2.1-4.1-1.3-9.3
	c2.9,1.3,6.1,2.3,9.4,3.1c2.5,0.5,5,0.9,7.5,1c-1.2,5.2-2.8,8-3.8,8c-0.1,0-0.1,0-0.2,0C25.6,56,21.7,55,18.3,53.4 M4.2,36.7
	C4,35.8,3.9,34.9,3.8,34c0.9,1.3,2,2.6,3.3,3.8c2,1.8,4.4,3.5,7,4.9c-0.5,3-0.7,5.7-0.3,7.9C9.3,47.2,5.9,42.3,4.2,36.7 M38.1,29.4
	c0-1.1,0-2.1,0-3.2c3.4-0.2,6.5-1.1,9.1-2.6c2.4,4.7,3.7,9.7,3.6,14.4c0,1.4-0.1,2.7-0.3,3.9c-1.2,0.8-2.6,1.4-4.2,1.9
	c-2.8,0.9-6,1.5-9.4,1.6C37.7,40.5,38.1,34.8,38.1,29.4 M26.7,44.3c-3.4-0.7-6.6-1.8-9.5-3.2c0.9-4.3,2.7-9.4,5.5-15.2
	c0.4-0.8,0.8-1.6,1.2-2.5c2,0.9,4.1,1.6,6.3,2.1c1.7,0.4,3.4,0.6,5.1,0.6c0,1,0,2.1,0,3.2c0,6.4-0.5,11.8-1.3,15.9
	C31.7,45.2,29.2,44.9,26.7,44.3 M9,35.8c-2.3-2.1-3.9-4.4-4.7-6.7C4.9,26.6,6.2,24,8,21.6c1.7-2.3,3.9-4.4,6.4-6.2
	c0.7,1.3,1.7,2.6,3,3.7c1.2,1.1,2.6,2.2,4.2,3.1c-0.4,0.8-0.9,1.7-1.3,2.5c-2.4,5-4.4,10.3-5.6,15.1C12.6,38.7,10.7,37.3,9,35.8
	 M36.3,10.4c3.1,2.3,5.9,5.3,8.3,8.8c0.4,0.7,0.9,1.3,1.3,2c-2.2,1.3-4.9,2-7.9,2.2C37.7,18.7,37.2,14.2,36.3,10.4 M30.9,22.9
	c-2-0.4-3.8-1-5.6-1.8c2.5-4.4,5.3-8.3,8.1-11.2c0.9,3.4,1.6,7.9,1.9,13.5C33.8,23.4,32.3,23.2,30.9,22.9 M19.2,17.2
	c-1.1-1.1-2-2.2-2.6-3.3c2.6-1.5,5.4-2.8,8.4-3.7c1.8-0.5,3.6-0.9,5.4-1.2c-2.6,2.9-5.2,6.6-7.6,10.8C21.5,19.1,20.3,18.2,19.2,17.2
	 M13.4,8.5c0,0.1-0.1,0.3-0.1,0.4c-0.3,1.3-0.2,2.6,0.1,3.9c-2.9,2-5.5,4.4-7.5,7.1c-0.6,0.8-1.2,1.7-1.7,2.5
	C5.7,16.9,8.9,12,13.4,8.5 M15.9,9.5c0.3-1.4,1.2-2.7,2.5-3.7c3.2-0.9,6.9-0.7,10.8,0.7c-1.6,0.3-3.3,0.7-4.9,1.2
	c-3,0.9-5.8,2.1-8.4,3.6C15.8,10.7,15.8,10.1,15.9,9.5 M38,5.9c0.9-0.6,1.8-1,2.5-1.2c1.4,0.5,2.7,1.2,4,2.1
	C42.5,6.4,40.3,6.1,38,5.9 M33.5,3c1.1,0.1,2.3,0.3,3.5,0.6c-0.8,0.4-1.5,0.9-2.3,1.5C34.2,4.3,33.9,3.6,33.5,3 M30.5,4.1
	C29.3,3.6,28,3.3,26.8,3c1-0.1,1.9-0.2,2.9-0.2c0.5,0,1,0.6,1.6,1.6C31.1,4.3,30.8,4.2,30.5,4.1 M0.5,29.4c0,2.8,0.4,5.5,1.1,8
	c0,0.2,0.1,0.3,0.1,0.5c0,0,0,0.1,0,0.1c3.7,12,14.9,20.7,28,20.7c6.1,0,11.7-1.9,16.4-5.1c0,0,0.1,0,0.1-0.1
	c0.3-0.2,0.5-0.4,0.8-0.6c5.4-4,9.4-9.8,11.1-16.5c0.1-0.3,0.2-0.6,0.2-0.9c0-0.1,0-0.1,0-0.2c0.4-1.9,0.6-3.9,0.6-6
	c0-4-0.8-7.8-2.3-11.4c-0.3-0.7-1.1-1-1.8-0.7c-0.7,0.3-1,1.1-0.7,1.8c1.4,3.3,2.1,6.8,2.1,10.3c0,2.2-0.3,4.3-0.8,6.4
	c-0.4,1.3-1.1,2.5-2.1,3.6c0-0.5,0-0.9,0-1.4c0-5.2-1.4-10.8-4.1-15.9c2-1.7,3.2-3.8,3.6-6.1c0.1-0.7-0.4-1.4-1.1-1.6
	c-0.7-0.1-1.5,0.4-1.6,1.1c-0.3,1.5-1.1,3-2.3,4.2c-0.4-0.6-0.8-1.3-1.2-1.9c-2.4-3.5-5.2-6.5-8.3-9c4.1,0.3,7.9,1.3,11,3
	c0.5,0.3,1.1,0.3,1.6-0.1c0.6-0.5,0.7-1.3,0.2-1.9c-4.4-6.1-12-9.5-21.4-9.5C13.6,0.1,0.5,13.2,0.5,29.4"/>
<path fill="#002244" d="M292.8,20.8c4.3,0,6.7,2.1,6.7,5.9c0,3.6-2.4,5.7-6.3,5.7h-2.8V38h-3.6V20.8 M290.5,29.5h2.2
	c2.1,0,3.2-0.9,3.2-2.8c0-1.9-1.2-2.9-3.3-2.9h-2.1V29.5z M280.1,31.1c0,2.5-1,3.7-3,3.7c-2,0-3-1.3-3-3.7V20.8h-3.7v10
	c0,2.5,0.6,4.3,1.8,5.5c1.1,1.1,2.8,1.7,4.9,1.7c3,0,6.6-1.3,6.6-7.3v-10h-3.6V31.1z M260.5,20.7c3.7,0,7.7,2.3,7.7,8.7
	c0,6.4-4,8.7-7.7,8.7c-3.7,0-7.7-2.3-7.7-8.7C252.8,23,256.8,20.7,260.5,20.7 M260.5,34.9c1.4,0,3.9-0.7,3.9-5.5
	c0-4.8-2.4-5.5-3.9-5.5c-2.5,0-3.9,2-3.9,5.5C256.6,33,258,34.9,260.5,34.9 M249.1,32.8c0.6,1.2,1.1,2.3,2.3,2.3h0.9v2.8l-0.1,0
	c0,0-0.7,0.2-1.8,0.2c-2.9,0-3.8-2-4.5-3.7c-0.6-1.4-1.2-2.7-2.7-2.7h-1.6V38h-3.7V20.8h6.1c4.4,0,6.5,1.7,6.5,5.4
	c0,2.3-1.4,3.7-2.8,4.3C248.3,31.2,248.7,32,249.1,32.8 M241.5,28.9h2c2,0,3.3-0.9,3.3-2.5c0-1.6-1.1-2.5-3-2.5h-2.3V28.9z
	 M228.1,31.7h3.8v0.2c0,1.1-0.4,3-3,3c-2.5,0-4-2-4-5.4c0-3.5,1.4-5.5,3.9-5.5c2.9,0,3,3,3,3.1l0,0.2l3.4-0.5v-0.1
	c0-1.2-1.1-5.9-6.5-5.9c-4.8,0-7.6,3.2-7.6,8.7c0,5.4,2.9,8.7,7.7,8.7c4.8,0,6.5-3.4,6.5-6.2v-3h-7.2V31.7z M217.2,20.8h-4.3
	l-5.7,7.7v-7.7h-3.7V38h3.7v-7.9L213,38h4.4l-6.6-8.6L217.2,20.8z M196.6,31.4l-6-10.6h-3.7V38h3.7V27.8l6,10.2h3.7V20.8h-3.6V31.4z
	 M179.6,21l6.3,17h-3.8l-1.5-4.2h-5.7l-1.4,4.2h-3.8l6.3-17.1h3.6L179.6,21z M177.8,25.5l-1.8,5.4h3.7L177.8,25.5z M166.3,28.9
	c1.3,0.4,3,1.6,3,4.2c0,3.1-2.2,4.9-6,4.9h-7.2V20.8h6.5c3.7,0,5.6,1.6,5.6,4.6C168.2,27.8,167.1,28.7,166.3,28.9 M162.2,27.8
	c1.5,0,2.2-0.6,2.2-2c0-1.3-0.9-2-2.7-2h-2v4H162.2z M159.7,35h2.9c1.9,0,2.7-0.7,2.7-2.2c0-1.8-1.5-2.2-2.8-2.2h-2.8V35z M141,20.8
	c5.3,0,8.5,3.3,8.5,8.9c0,5.3-2.8,8.3-7.8,8.3h-5.8V20.8H141z M139.6,35h2.1c2.6,0,4.2-2,4.2-5.3c0-3.8-1.7-5.8-4.9-5.8h-1.4V35z
	 M126.8,20.8h-3.7V38h11.1v-3h-7.4V20.8z M118.2,32.8c0.6,1.2,1.1,2.3,2.3,2.3h0.9v2.8l-0.1,0c0,0-0.7,0.2-1.8,0.2
	c-2.9,0-3.8-2-4.5-3.7c-0.6-1.4-1.2-2.7-2.7-2.7h-1.6V38H107V20.8h6.1c4.4,0,6.5,1.7,6.5,5.4c0,2.3-1.4,3.7-2.8,4.3
	C117.5,31.2,117.9,32,118.2,32.8 M110.7,28.9h2c2,0,3.3-0.9,3.3-2.5c0-1.6-1.1-2.5-3-2.5h-2.3V28.9z M97.3,20.7
	c3.7,0,7.7,2.3,7.7,8.7c0,6.4-4,8.7-7.7,8.7c-3.7,0-7.7-2.3-7.7-8.7C89.6,23,93.6,20.7,97.3,20.7 M97.3,34.9c1.5,0,3.9-0.7,3.9-5.5
	c0-4.8-2.4-5.5-3.9-5.5c-2.5,0-3.9,2-3.9,5.5C93.4,33,94.8,34.9,97.3,34.9 M85,20.8h4.1L84.2,38h-4.1l-3-10.7L74,38h-4.1L65,20.8
	h4.2l2.9,12.5l3.5-12.5h3.1L82,33.3L85,20.8z"/>
</svg>
