<svg id="Layer_1" data-name="Layer 1" xmlns="http://www.w3.org/2000/svg" xmlns:xlink="http://www.w3.org/1999/xlink" viewBox="0 0 232.1 47.36"><defs><style>.cls-1{fill:none;}.cls-2{clip-path:url(#clip-path);}.cls-3{fill:url(#radial-gradient);}.cls-4{fill:#002f54;}.cls-5{fill:#00aeef;}</style><clipPath id="clip-path"><path class="cls-1" d="M29,38.73a28.74,28.74,0,0,0,8.67-1.37c.66-.23,1.28-.47,1.88-.74A10.56,10.56,0,0,1,36.39,41a21.45,21.45,0,0,1-9.51,3.94A22.31,22.31,0,0,0,29,38.73M14.38,43a1.1,1.1,0,0,0-.21-.14c-1.22-.6-1.72-3.33-1.08-7.5a37.37,37.37,0,0,0,7.6,2.47,37.77,37.77,0,0,0,6.06.81c-1,4.24-2.22,6.46-3.05,6.46h-.16A21.35,21.35,0,0,1,14.38,43M3,29.56a11.64,11.64,0,0,1-.36-2.19,19.37,19.37,0,0,0,2.7,3.06,27.29,27.29,0,0,0,5.66,4,20.25,20.25,0,0,0-.29,6.42A21.51,21.51,0,0,1,3,29.56m27.38-5.92c0-.86,0-1.72,0-2.58A17.19,17.19,0,0,0,37.72,19a25.8,25.8,0,0,1,3,11.61,18.3,18.3,0,0,1-.27,3.12A16.53,16.53,0,0,1,37,35.27a26.11,26.11,0,0,1-7.55,1.25,81.17,81.17,0,0,0,1-12.88M21.15,35.72a35.71,35.71,0,0,1-7.64-2.55A56.08,56.08,0,0,1,18,20.91c.32-.67.66-1.33,1-2a26.13,26.13,0,0,0,5.11,1.66,24,24,0,0,0,4.09.5q0,1.23,0,2.55a74.24,74.24,0,0,1-1,12.86,37.72,37.72,0,0,1-6-.78M6.87,28.81a14.1,14.1,0,0,1-3.82-5.38,17.11,17.11,0,0,1,3-6,23.66,23.66,0,0,1,5.15-5,12.54,12.54,0,0,0,2.42,3A18.09,18.09,0,0,0,17,17.93q-.53,1-1,2a61.41,61.41,0,0,0-4.49,12.2,24.58,24.58,0,0,1-4.63-3.33m22-20.47a29.93,29.93,0,0,1,6.72,7.08c.36.54.71,1.08,1,1.63a15.07,15.07,0,0,1-6.38,1.79,62.87,62.87,0,0,0-1.37-10.5M24.54,18.43A23.44,23.44,0,0,1,20,17a47.09,47.09,0,0,1,6.52-9,58.68,58.68,0,0,1,1.52,10.94,20.54,20.54,0,0,1-3.54-.45m-9.41-4.59a10.12,10.12,0,0,1-2.07-2.63,29.58,29.58,0,0,1,6.78-3,32.32,32.32,0,0,1,4.37-1A52.22,52.22,0,0,0,18.07,16a16.06,16.06,0,0,1-2.94-2.16m-4.74-7c0,.12-.06.23-.08.34a6.89,6.89,0,0,0,.06,3.16A26.4,26.4,0,0,0,4.3,16.06a20.89,20.89,0,0,0-1.35,2A21.53,21.53,0,0,1,10.39,6.82m2.07.8a5.24,5.24,0,0,1,2-3,13.81,13.81,0,0,1,8.71.56,34.27,34.27,0,0,0-3.95.93,32.28,32.28,0,0,0-6.82,2.94,4.57,4.57,0,0,1,.07-1.43m17.87-2.9a7,7,0,0,1,2-1A16.58,16.58,0,0,1,35.6,5.48a27.77,27.77,0,0,0-5.27-.76M26.62,2.36a24.76,24.76,0,0,1,2.83.49,13.51,13.51,0,0,0-1.9,1.23,12,12,0,0,0-.93-1.72m-2.39.87a20.19,20.19,0,0,0-2.95-.89,20.66,20.66,0,0,1,2.37-.14c.37,0,.83.46,1.32,1.33-.25-.1-.49-.21-.74-.3M0,23.68a23.55,23.55,0,0,0,.91,6.49c0,.14.07.28.11.42l0,.07A23.66,23.66,0,0,0,37,43.28l.12-.07c.22-.15.44-.31.65-.48a23.74,23.74,0,0,0,8.93-13.3c.07-.25.14-.5.2-.76,0-.06,0-.12,0-.18a23.81,23.81,0,0,0-1.37-14,1.1,1.1,0,0,0-1.45-.58,1.09,1.09,0,0,0-.58,1.44,21.49,21.49,0,0,1,1.06,13.52,7.87,7.87,0,0,1-1.69,2.88c0-.38,0-.75,0-1.14A28.26,28.26,0,0,0,39.54,17.7a8.52,8.52,0,0,0,3-4.94,1.1,1.1,0,0,0-2.17-.4,6.27,6.27,0,0,1-1.89,3.37c-.32-.52-.64-1-1-1.55A32.05,32.05,0,0,0,30.7,6.94a21.15,21.15,0,0,1,8.86,2.4A1.09,1.09,0,0,0,41,7.7C37.42,2.74,31.28,0,23.68,0A23.7,23.7,0,0,0,0,23.68"/></clipPath><radialGradient id="radial-gradient" cx="64.71" cy="699.18" r="0.65" gradientTransform="matrix(60.74, 0, 0, -60.74, -3885.18, 42479.24)" gradientUnits="userSpaceOnUse"><stop offset="0" stop-color="#fff"/><stop offset="0.06" stop-color="#ebf9fe"/><stop offset="0.18" stop-color="#b6e8fa"/><stop offset="0.36" stop-color="#60cdf5"/><stop offset="0.54" stop-color="#00aeef"/><stop offset="1" stop-color="#002f54"/></radialGradient></defs><title>WB_Jobs_logo_color</title><g class="cls-2"><rect class="cls-3" width="47.36" height="47.36"/></g><path class="cls-4" d="M226.94,10.53c3.33,0,5.16,1.61,5.16,4.54,0,2.75-1.8,4.4-4.83,4.4h-2.12v4.22h-2.8V10.53Zm-1.79,6.65h1.68c1.63,0,2.45-.71,2.45-2.11s-.9-2.21-2.54-2.21h-1.59Zm-8,1.24c0,1.93-.74,2.87-2.27,2.87s-2.32-1-2.32-2.87V10.53h-2.8v7.7a5.78,5.78,0,0,0,1.39,4.25,5.08,5.08,0,0,0,3.73,1.32c2.31,0,5.07-1,5.07-5.57v-7.7h-2.8Zm-15-8c2.84,0,5.88,1.76,5.88,6.71s-3,6.67-5.88,6.67-5.9-1.76-5.9-6.67,3-6.71,5.9-6.71m0,10.92c1.11,0,3-.54,3-4.21s-1.87-4.22-3-4.22c-1.94,0-3,1.5-3,4.22s1.06,4.21,3,4.21m-8.79-1.64c.46.94.86,1.76,1.79,1.76h.66v2.16l-.09,0a6.28,6.28,0,0,1-1.36.13c-2.22,0-2.89-1.52-3.5-2.87-.49-1.1-.91-2.05-2.07-2.05h-1.23v4.83h-2.8V10.53h4.66c3.41,0,5,1.33,5,4.18A3.54,3.54,0,0,1,192.32,18a5.81,5.81,0,0,1,1.06,1.66m-5.8-3h1.57c1.55,0,2.52-.72,2.52-1.89s-.85-1.93-2.32-1.93h-1.77Zm-10.26,2.2h2.89V19a2.08,2.08,0,0,1-2.32,2.29c-1.9,0-3-1.57-3-4.18s1.09-4.22,3-4.22a2.34,2.34,0,0,1,2.33,2.38v.15l2.61-.41v-.11a4.74,4.74,0,0,0-5-4.5c-3.71,0-5.84,2.44-5.84,6.71s2.19,6.67,5.88,6.67,5-2.58,5-4.79V16.72h-5.53Zm-8.39-8.35H165.6l-4.36,5.92V10.53H158.4V23.69h2.84V17.64l4.47,6.05h3.37L164,17.05Zm-15.85,8.13-4.6-8.13h-2.84V23.69h2.8V15.84L153,23.69h2.85V10.53h-2.8Zm-13-8,4.8,13.07H142l-1.12-3.23h-4.38l-1.09,3.23h-2.93l4.83-13.16h2.78Zm-1.43,3.5-1.42,4.15h2.87Zm-8.81,2.63a3.17,3.17,0,0,1,2.33,3.2c0,2.37-1.69,3.74-4.63,3.74H122V10.53h5c2.85,0,4.29,1.19,4.29,3.54,0,1.82-.82,2.46-1.46,2.68m-3.13-.84c1.17,0,1.72-.49,1.72-1.55s-.7-1.5-2.06-1.5h-1.57v3.05Zm-1.91,5.45H127c1.43,0,2.1-.54,2.1-1.69,0-1.42-1.17-1.71-2.16-1.71h-2.13ZM110.46,10.53c4.1,0,6.54,2.54,6.54,6.8,0,4-2.18,6.36-6,6.36h-4.46V10.53Zm-1.1,10.83H111c2,0,3.23-1.52,3.23-4.07,0-2.94-1.28-4.43-3.8-4.43h-1.06Zm-9.8-10.83H96.75V23.69h8.5V21.36H99.56ZM93,19.7c.46.94.86,1.76,1.79,1.76h.66v2.16l-.1,0a6.12,6.12,0,0,1-1.35.13c-2.22,0-2.89-1.52-3.5-2.87-.49-1.1-.91-2.05-2.07-2.05H87.18v4.83h-2.8V10.53H89c3.41,0,5,1.33,5,4.18A3.54,3.54,0,0,1,91.92,18,6,6,0,0,1,93,19.7m-5.8-3h1.56c1.56,0,2.53-.72,2.53-1.89s-.85-1.93-2.32-1.93H87.18ZM76.9,10.42c2.84,0,5.88,1.76,5.88,6.71s-3,6.67-5.88,6.67S71,22,71,17.13s3-6.71,5.9-6.71m0,10.92c1.11,0,3-.54,3-4.21s-1.87-4.22-3-4.22c-1.93,0-3,1.5-3,4.22s1.07,4.21,3,4.21M67.44,10.53h3.17L66.83,23.69H63.67l-2.3-8.25L59,23.69H55.88L52.1,10.53h3.26l2.21,9.6,2.65-9.6h2.36l2.56,9.6Z"/><path class="cls-5" d="M55.93,27h3V37a5,5,0,0,1-5.17,5.36,5.22,5.22,0,0,1-3.91-1.59l1.86-2.11a2.83,2.83,0,0,0,2.05,1c1.35,0,2.16-.85,2.16-2.49Z"/><path class="cls-5" d="M61.11,37c0-3.2,1.79-5.36,4.88-5.36S70.9,33.76,70.9,37,69.11,42.37,66,42.37,61.11,40.21,61.11,37Zm7,0c0-1.84-.66-2.91-2.08-2.91S63.92,35.15,63.92,37s.63,2.9,2.07,2.9S68.07,38.82,68.07,37Z"/><path class="cls-5" d="M73.07,42.24V26.4h2.84v6.51a3.11,3.11,0,0,1,2.85-1.31c2.06,0,4.24,1.61,4.24,5.34,0,3.93-2.14,5.43-4.43,5.43a4.06,4.06,0,0,1-3-1.33v1.2ZM75.91,38A2.05,2.05,0,0,0,78,39.89c1.26,0,2.18-.94,2.18-2.9,0-2.12-1.13-2.91-2.2-2.91a2.19,2.19,0,0,0-2,1.84Z"/><path class="cls-5" d="M91,35.61a2.41,2.41,0,0,0,.11-.76c0-.64-.46-1.09-1.68-1.09-1.07,0-1.64.41-1.64,1.11,0,2.16,6,.39,6,4.23,0,2-1.46,3.27-4.56,3.27-3.86,0-4.86-2.2-4.86-2.2L86,38.58a4.06,4.06,0,0,0,3.14,1.59c1.16,0,1.62-.37,1.62-.94,0-1.72-5.83-.32-5.83-4.3,0-1.7,1.18-3.33,4.45-3.33s4.3,1.48,4.3,3a2.85,2.85,0,0,1-.17,1Z"/></svg>